# xmcd CD database file
# Generated: Mon Oct 14 23:08:40 2002 by KSCD
# 
# Track frame offsets:
#       150
#       13457
#       25955
#       37800
#       49765
#       61805
#       74182
#       87370
#       100165
#       112045
#       123882
#       135545
#
# Disc length: 1969 seconds
#
# Revision: 2
# Processed by: cddbd v1.4PL0 Copyright (c) Steve Scherf et al.
# Submitted via: Kscd 1.3.3
#
DISCID=a607af0c
DTITLE=Hank Williams Snr. - The Greatest Hits of Hank Williams Snr.
DYEAR=1900
DGENRE=
TTITLE0=Hey Good Lookin'
TTITLE1=Lovesick Blues
TTITLE2=My Son Calls Another Man Daddy
TTITLE3=You Win Again
TTITLE4=Take These Chains From My Heart
TTITLE5=Your Cheatin' Heart
TTITLE6=Jambalaya
TTITLE7=I'm So Lonesome I Could Cry
TTITLE8=Settin' the Woods on Fire
TTITLE9=Kaw-Liga
TTITLE10=My Bucket's Got a Hole in It
TTITLE11=Cold, Cold Heart
EXTD=Pickwick PWK 114\n\nAAD.\n\n1978/89.
EXTT0=
EXTT1=
EXTT2=
EXTT3=
EXTT4=
EXTT5=
EXTT6=
EXTT7=
EXTT8=
EXTT9=
EXTT10=
EXTT11=
PLAYORDER=
